<svg width="651.125px" height="122.021240234375px" xmlns="http://www.w3.org/2000/svg" viewBox="-75.5625 13.9893798828125 651.125 122.021240234375" style="background: rgba(0, 0, 0, 0);" preserveAspectRatio="xMidYMid"><defs><filter id="editing-extrusion" x="-100%" y="-100%" width="300%" height="300%"><feFlood result="color1" flood-color="#444"></feFlood><feConvolveMatrix order="8,8" divisor="1" kernelMatrix="1 0 0 0 0 0 0 0 0 1 0 0 0 0 0 0 0 0 1 0 0 0 0 0 0 0 0 1 0 0 0 0 0 0 0 0 1 0 0 0 0 0 0 0 0 1 0 0 0 0 0 0 0 0 1 0 0 0 0 0 0 0 0 1" in="SourceAlpha" result="extrude"></feConvolveMatrix><feComposite in="color1" in2="extrude" result="comp-extrude" operator="in"></feComposite><feOffset dx="4" dy="4" in="comp-extrude" result="offset-extrude"></feOffset><feMerge><feMergeNode in="offset-extrude"></feMergeNode><feMergeNode in="SourceGraphic"></feMergeNode></feMerge></filter></defs><g filter="url(#editing-extrusion)"><g transform="translate(20.078137189149857, 97.45718765258789)"><path d="M26.11-42.69L26.11-42.69L26.11-42.69Q41.79-42.69 41.79-31.62L41.79-31.62L41.79-31.62Q41.79-25.54 37.89-21.89L37.89-21.89L37.89-21.89Q34.05-18.24 27.33-18.24L27.33-18.24L27.33-18.24Q24.19-18.24 21.76-20.03L21.76-20.03L21.76-20.03Q20.61-20.80 19.84-21.82L19.84-21.82L19.84-21.82Q24.51-21.82 26.98-24.67L26.98-24.67L26.98-24.67Q29.44-27.52 29.44-33.09L29.44-33.09L29.44-33.09Q29.44-38.66 23.94-38.66L23.94-38.66L22.40-38.66L22.40-38.66Q22.02-38.66 21.70-38.59L21.70-38.59L14.34 0L0.45 0L8.32-41.92L8.32-41.92Q15.17-42.56 19.14-42.62L19.14-42.62L19.14-42.62Q23.10-42.69 26.11-42.69ZM55.23 0L41.54 0L49.34-42.05L49.34-42.05Q55.68-42.75 64.93-42.75L64.93-42.75L64.93-42.75Q74.18-42.75 78.46-40.06L78.46-40.06L78.46-40.06Q82.75-37.38 82.75-31.97L82.75-31.97L82.75-31.97Q82.75-26.56 79.97-23.17L79.97-23.17L79.97-23.17Q77.18-19.78 72.38-18.69L72.38-18.69L72.38-18.69Q73.47-13.38 75.97-9.09L75.97-9.09L75.97-9.09Q78.27-5.06 80.96-3.78L80.96-3.78L80.96-3.78Q80-1.09 78.05 0.10L78.05 0.10L78.05 0.10Q76.10 1.28 73.31 1.28L73.31 1.28L73.31 1.28Q70.53 1.28 68.35-0.35L68.35-0.35L68.35-0.35Q66.18-1.98 64.45-4.99L64.45-4.99L64.45-4.99Q60.80-11.52 60.42-21.82L60.42-21.82L60.86-21.82L60.86-21.82Q65.60-21.95 67.97-24.42L67.97-24.42L67.97-24.42Q70.34-26.88 70.34-32.06L70.34-32.06L70.34-32.06Q70.34-38.53 64.90-38.78L64.90-38.78L63.49-38.78L63.49-38.78Q62.91-38.78 62.59-38.72L62.59-38.72L55.23 0ZM86.66-15.62L86.66-15.62L86.66-15.62Q86.66-27.71 92.93-35.33L92.93-35.33L92.93-35.33Q99.58-43.58 111.17-43.58L111.17-43.58L111.17-43.58Q119.55-43.58 123.78-39.52L123.78-39.52L123.78-39.52Q128-35.46 128-26.88L128-26.88L128-26.88Q128-13.82 121.34-6.21L121.34-6.21L121.34-6.21Q114.75 1.28 103.68 1.28L103.68 1.28L103.68 1.28Q95.04 1.28 90.85-3.04L90.85-3.04L90.85-3.04Q86.66-7.36 86.66-15.62ZM103.49-28.86L103.49-28.86L103.49-28.86Q100.61-17.34 100.61-8.26L100.61-8.26L100.61-8.26Q100.61-6.08 101.34-4.67L101.34-4.67L101.34-4.67Q102.08-3.26 104.03-3.26L104.03-3.26L104.03-3.26Q105.98-3.26 107.20-4.19L107.20-4.19L107.20-4.19Q108.42-5.12 109.38-7.23L109.38-7.23L109.38-7.23Q110.91-10.69 112.35-18.02L112.35-18.02L112.35-18.02Q113.79-25.34 113.92-28.38L113.92-28.38L113.92-28.38Q114.05-31.42 114.05-33.73L114.05-33.73L114.05-33.73Q114.05-36.03 113.34-37.50L113.34-37.50L113.34-37.50Q112.64-38.98 110.75-38.98L110.75-38.98L110.75-38.98Q108.86-38.98 107.58-37.82L107.58-37.82L107.58-37.82Q105.22-35.65 103.49-28.86ZM164.54-13.25L164.54-13.25L164.54-13.25Q166.21-12.03 166.21-9.44L166.21-9.44L166.21-9.44Q166.21-6.85 165.09-5.02L165.09-5.02L165.09-5.02Q163.97-3.20 161.79-1.79L161.79-1.79L161.79-1.79Q157.12 1.22 148.96 1.22L148.96 1.22L148.96 1.22Q140.80 1.22 136.35-3.04L136.35-3.04L136.35-3.04Q131.90-7.30 131.90-14.85L131.90-14.85L131.90-14.85Q131.90-25.54 137.47-33.66L137.47-33.66L137.47-33.66Q141.70-39.68 149.25-42.24L149.25-42.24L149.25-42.24Q153.15-43.52 156.99-43.52L156.99-43.52L156.99-43.52Q160.83-43.52 163.20-43.01L163.20-43.01L163.20-43.01Q165.57-42.50 167.36-41.47L167.36-41.47L167.36-41.47Q171.26-39.23 171.26-35.65L171.26-35.65L171.26-35.65Q171.26-32.38 168.19-29.95L168.19-29.95L168.19-29.95Q165.38-27.78 163.07-27.78L163.07-27.78L163.07-27.78Q160.77-27.78 159.81-28.10L159.81-28.10L159.81-28.10Q160.06-30.40 160.06-31.90L160.06-31.90L160.06-31.90Q160.06-33.41 160-34.50L160-34.50L160-34.50Q159.94-35.58 159.62-36.61L159.62-36.61L159.62-36.61Q158.98-38.98 157.02-38.98L157.02-38.98L157.02-38.98Q155.07-38.98 153.12-37.15L153.12-37.15L153.12-37.15Q151.17-35.33 149.50-32.26L149.50-32.26L149.50-32.26Q145.73-25.28 145.73-17.02L145.73-17.02L145.73-17.02Q145.73-13.06 147.97-10.78L147.97-10.78L147.97-10.78Q150.21-8.51 155.01-8.51L155.01-8.51L155.01-8.51Q158.59-8.51 161.98-10.88L161.98-10.88L161.98-10.88Q163.46-11.90 164.54-13.25ZM172.74-9.47L172.74-9.47L172.74-9.47Q172.74-11.97 173.38-15.17L173.38-15.17L178.56-42.24L192.70-42.24L187.58-14.98L187.58-14.98Q187.01-11.97 187.01-9.76L187.01-9.76L187.01-9.76Q187.01-7.55 187.94-6.40L187.94-6.40L187.94-6.40Q188.86-5.25 190.59-5.25L190.59-5.25L190.59-5.25Q192.32-5.25 193.41-5.70L193.41-5.70L193.41-5.70Q194.50-6.14 195.39-7.23L195.39-7.23L195.39-7.23Q197.12-9.41 198.21-14.98L198.21-14.98L203.39-42.24L213.06-42.24L207.94-15.04L207.94-15.04Q206.14-5.95 201.22-2.30L201.22-2.30L201.22-2.30Q196.42 1.28 186.94 1.28L186.94 1.28L186.94 1.28Q179.84 1.28 176.06-1.79L176.06-1.79L176.06-1.79Q172.74-4.48 172.74-9.47ZM227.46 0L213.76 0L221.57-42.05L221.57-42.05Q227.90-42.75 237.15-42.75L237.15-42.75L237.15-42.75Q246.40-42.75 250.69-40.06L250.69-40.06L250.69-40.06Q254.98-37.38 254.98-31.97L254.98-31.97L254.98-31.97Q254.98-26.56 252.19-23.17L252.19-23.17L252.19-23.17Q249.41-19.78 244.61-18.69L244.61-18.69L244.61-18.69Q245.70-13.38 248.19-9.09L248.19-9.09L248.19-9.09Q250.50-5.06 253.18-3.78L253.18-3.78L253.18-3.78Q252.22-1.09 250.27 0.10L250.27 0.10L250.27 0.10Q248.32 1.28 245.54 1.28L245.54 1.28L245.54 1.28Q242.75 1.28 240.58-0.35L240.58-0.35L240.58-0.35Q238.40-1.98 236.67-4.99L236.67-4.99L236.67-4.99Q233.02-11.52 232.64-21.82L232.64-21.82L233.09-21.82L233.09-21.82Q237.82-21.95 240.19-24.42L240.19-24.42L240.19-24.42Q242.56-26.88 242.56-32.06L242.56-32.06L242.56-32.06Q242.56-38.53 237.12-38.78L237.12-38.78L235.71-38.78L235.71-38.78Q235.14-38.78 234.82-38.72L234.82-38.72L227.46 0ZM285.25-9.86L285.25-9.86L285.25-9.86Q286.46-8.32 286.46-5.82L286.46-5.82L286.46-5.82Q286.46-2.37 283.90-0.54L283.90-0.54L283.90-0.54Q281.34 1.28 277.31 1.28L277.31 1.28L277.31 1.28Q275.01 1.28 271.49 0.77L271.49 0.77L271.49 0.77Q264.58-0.32 262.46-0.32L262.46-0.32L262.46-0.32Q260.35-0.32 259.52-0.22L259.52-0.22L259.52-0.22Q258.69-0.13 257.34 0L257.34 0L265.22-42.24L292.80-42.24L292.80-42.24Q292.80-38.34 290.91-36.29L290.91-36.29L290.91-36.29Q289.02-34.24 285.31-34.24L285.31-34.24L285.31-34.24Q281.60-34.24 277.82-35.97L277.82-35.97L275.84-24.77L287.23-24.77L287.23-24.77Q287.23-21.38 285.57-19.49L285.57-19.49L285.57-19.49Q283.90-17.60 281.12-17.60L281.12-17.60L281.12-17.60Q278.34-17.60 276.61-18.24L276.61-18.24L276.61-18.24Q274.88-18.88 274.69-19.07L274.69-19.07L272.38-6.98L272.38-6.98Q273.92-6.78 276.80-6.78L276.80-6.78L276.80-6.78Q281.73-6.78 285.25-9.86ZM297.79 0L290.43 0L302.02-42.24L315.39-42.24L318.34-18.11L330.24-42.24L341.44-42.24L342.59-10.62L342.59-10.62Q342.85-4.35 345.92-2.43L345.92-2.43L345.92-2.43Q345.22-1.15 343.17 0.06L343.17 0.06L343.17 0.06Q341.12 1.28 338.40 1.28L338.40 1.28L338.40 1.28Q335.68 1.28 334.08 0.51L334.08 0.51L334.08 0.51Q332.48-0.26 331.58-1.54L331.58-1.54L331.58-1.54Q329.98-3.84 329.98-8.26L329.98-8.26L329.98-28.03L317.38 0L309.44 0L304.96-28.74L297.79 0ZM376-9.86L376-9.86L376-9.86Q377.22-8.32 377.22-5.82L377.22-5.82L377.22-5.82Q377.22-2.37 374.66-0.54L374.66-0.54L374.66-0.54Q372.10 1.28 368.06 1.28L368.06 1.28L368.06 1.28Q365.76 1.28 362.24 0.77L362.24 0.77L362.24 0.77Q355.33-0.32 353.22-0.32L353.22-0.32L353.22-0.32Q351.10-0.32 350.27-0.22L350.27-0.22L350.27-0.22Q349.44-0.13 348.10 0L348.10 0L355.97-42.24L383.55-42.24L383.55-42.24Q383.55-38.34 381.66-36.29L381.66-36.29L381.66-36.29Q379.78-34.24 376.06-34.24L376.06-34.24L376.06-34.24Q372.35-34.24 368.58-35.97L368.58-35.97L366.59-24.77L377.98-24.77L377.98-24.77Q377.98-21.38 376.32-19.49L376.32-19.49L376.32-19.49Q374.66-17.60 371.87-17.60L371.87-17.60L371.87-17.60Q369.09-17.60 367.36-18.24L367.36-18.24L367.36-18.24Q365.63-18.88 365.44-19.07L365.44-19.07L363.14-6.98L363.14-6.98Q364.67-6.78 367.55-6.78L367.55-6.78L367.55-6.78Q372.48-6.78 376-9.86ZM389.70 0L382.66 0L390.34-42.24L404.10-42.24L414.08-13.18L419.39-42.24L426.50-42.18L418.69 0L404.03 0L394.82-27.97L389.70 0ZM433.22-31.17L433.22-31.17L433.22-31.17Q431.04-32.83 431.04-36.38L431.04-36.38L431.04-36.38Q431.04-39.94 433.38-41.79L433.38-41.79L433.38-41.79Q435.71-43.65 439.74-43.65L439.74-43.65L439.74-43.65Q442.30-43.65 448.38-42.75L448.38-42.75L452.74-42.11L452.74-42.11Q454.91-41.86 457.18-41.86L457.18-41.86L457.18-41.86Q459.46-41.86 460.99-42.82L460.99-42.82L460.99-42.82Q463.30-40.77 463.30-37.82L463.30-37.82L463.30-37.82Q463.30-34.88 460.67-32.77L460.67-32.77L460.67-32.77Q457.98-30.53 454.53-30.53L454.53-30.53L454.53-30.53Q452.86-30.53 450.18-30.98L450.18-30.98L450.18-30.98Q447.04-21.12 447.04-14.27L447.04-14.27L447.04-14.27Q447.04-7.42 450.50-3.84L450.50-3.84L450.50-3.84Q448.90-0.96 446.53 0.16L446.53 0.16L446.53 0.16Q444.16 1.28 440.61 1.28L440.61 1.28L440.61 1.28Q437.06 1.28 434.85-0.67L434.85-0.67L434.85-0.67Q432.64-2.62 432.64-6.66L432.64-6.66L432.64-6.66Q432.64-11.33 435.20-19.01L435.20-19.01L435.20-19.01Q437.76-26.62 441.60-32.45L441.60-32.45L441.60-32.45Q439.74-32.64 437.82-32.64L437.82-32.64L437.82-32.64Q433.86-32.64 433.22-31.17Z" fill="#ccc"></path></g></g><style>text {
  font-size: 64px;
  font-family: Arial Black;
  dominant-baseline: central;
  text-anchor: middle;
}</style></svg>